<svg version="1.1" xmlns="http://www.w3.org/2000/svg" viewBox="0 0 250 250"><desc>Created with Snap</desc><defs></defs><g transform="matrix(0.0357,0,0,0.0357,142.6313,134.9132)"><rect x="-4000.106612920562" y="-1759.104052734375" width="7011.2727460382375" height="2962.176123046875" fill="#4a274f" style=""></rect><g transform="matrix(37.8216,0,0,37.8216,-3830.7285,-2238.1774)"><path d="M60.733,32.344L49.179,20.789L37.624,32.344l11.555,11.556L60.733,32.344z M49.179,22.203l10.141,10.141L49.179,42.485  L39.038,32.344L49.179,22.203z M37.624,71.308l11.555,11.556l11.555-11.556L49.179,59.753L37.624,71.308z M49.179,81.449  L39.038,71.308l10.141-10.141l10.141,10.141L49.179,81.449z M40.679,71.308l8.5,8.501l8.501-8.501l-8.501-8.5L40.679,71.308z   M51.613,66.656l-2.435,2.434l-2.434-2.434l2.434-2.434L51.613,66.656z M49.179,78.395l-7.086-7.087l3.945-3.945l3.141,3.141  l3.142-3.141l3.945,3.945L49.179,78.395z M57.68,32.344l-8.501-8.5l-8.5,8.5l8.5,8.501L57.68,32.344z M46.755,37.006l2.424-2.424  l2.425,2.424l-2.425,2.425L46.755,37.006z M49.179,25.258l7.087,7.086l-3.955,3.955l-3.132-3.131l-3.131,3.131l-3.955-3.955  L49.179,25.258z M8.073,51.996l3.643-3.642l0.521,0.521l0.707-0.707l-1.228-1.228l-5.057,5.056l5.057,5.056L24.387,44.38  l-0.707-0.707L11.716,55.638L8.073,51.996z M33.839,48.509l-3.328,3.327l3.485,3.484l0.707-0.707l-2.778-2.777l2.621-2.62l2.78,2.78  l-7.318,7.317l-0.53-0.529l-0.707,0.707l1.237,1.236l8.732-8.731l-8.677-8.677L16.385,56.998l0.707,0.707l12.972-12.972  L33.839,48.509z M30.063,40.305L11.715,58.652l-6.657-6.656l6.657-6.657l3.318,3.317l0.707-0.707l-4.025-4.024l-8.071,8.071  l8.071,8.07l18.349-18.348l10.277,10.277L30.008,62.328l-6.944-6.944l-0.707,0.707l7.651,7.651l11.747-11.746L30.063,40.305z   M90.629,52.051l-3.643,3.642l-0.521-0.521l-0.707,0.707l1.228,1.228l5.057-5.056l-5.057-5.056L74.315,59.667l0.707,0.707  l11.964-11.965L90.629,52.051z M64.504,55.179l3.343-3.343l-3.128-3.128l3.975-3.975l0.531,0.529l0.707-0.707l-1.238-1.236  l-8.731,8.731l8.677,8.677l13.679-13.679l-0.707-0.707L68.639,59.313L64.504,55.179z M64.012,49.415l2.421,2.421l-2.636,2.636  l-2.421-2.421L64.012,49.415z M86.987,43.98L68.639,62.328L58.361,52.051l10.333-10.332l6.944,6.944l0.707-0.707l-7.651-7.651  L56.947,52.051l11.691,11.691l18.349-18.348l6.656,6.656l-6.656,6.657l-3.318-3.317l-0.707,0.707l4.025,4.024l8.07-8.071  L86.987,43.98z M66.418,38.022l-0.707-0.707L51.965,51.062l-2.006-2.006l13.744-13.744l-0.707-0.707L49.251,48.348L35.416,34.513  l-0.707,0.707l13.835,13.835l-2.007,2.007L32.705,37.229l-0.707,0.707l13.833,13.832L31.946,65.653l0.707,0.707l13.885-13.885  l2.006,2.006L34.671,68.355l0.707,0.707l13.873-13.873l13.791,13.79l0.707-0.707l-13.791-13.79l2.007-2.007L65.78,66.291  l0.707-0.707L52.672,51.769L66.418,38.022z M49.251,53.775l-2.006-2.006l2.007-2.007l2.006,2.006L49.251,53.775z" fill="#efa07b" style=""></path><desc>Created with Snap</desc><defs></defs></g><g><g transform="matrix(1.024,0,0,-1.024,0,0)"><path d="M221 0L208 0Q168 0 136 22Q105 44 87 83Q70 122 70 173L70 743Q70 760 80 770Q91 781 108 781Q125 781 135 770Q146 760 146 743L146 173Q146 130 163 103Q181 76 208 76L233 76Q248 76 257 65Q266 55 266 38Q266 21 253 10Q241 0 221 0ZM620 -5Q539 -5 476 30Q414 66 378 129Q343 192 343 273Q343 355 376 417Q410 480 469 516Q528 552 605 552Q681 552 737 517Q794 483 825 422Q856 361 856 283Q856 267 846 257Q836 248 820 248L395 248L395 312L828 312L785 281Q786 339 764 385Q742 431 701 457Q661 483 605 483Q548 483 505 456Q462 429 438 381Q415 334 415 273Q415 212 441 165Q468 118 514 91Q560 64 620 64Q656 64 692 76Q729 89 751 108Q762 117 776 117Q790 118 800 110Q813 98 813 84Q814 70 802 60Q769 32 718 13Q667 -5 620 -5ZM1368 0Q1356 0 1348 4Q1341 8 1333 18L1160 238L1130 264L956 485Q945 498 945 512Q946 526 955 536Q964 547 981 547Q998 547 1010 535L1178 320L1205 298L1391 60Q1404 44 1402 30Q1400 16 1389 8Q1379 0 1368 0ZM972 0Q956 0 946 10Q937 20 936 34Q936 48 947 61L1131 291L1174 234L999 12Q990 0 972 0ZM1387 484L1206 260L1157 310L1330 529Q1337 539 1345 543Q1354 547 1363 547Q1380 547 1389 536Q1398 526 1397 511Q1397 497 1387 484ZM1589 0Q1571 0 1560 10Q1550 21 1550 39L1550 508Q1550 526 1560 536Q1571 547 1589 547Q1606 547 1616 536Q1627 526 1627 508L1627 39Q1627 21 1616 10Q1606 0 1589 0ZM1588 651Q1566 651 1550 667Q1534 683 1534 706Q1534 731 1550 745Q1567 760 1589 760Q1610 760 1626 745Q1643 731 1643 706Q1643 683 1627 667Q1611 651 1588 651ZM1891 0Q1876 0 1865 10Q1854 21 1854 39L1854 546Q1854 616 1878 669Q1902 722 1949 751Q1996 781 2064 781Q2081 781 2092 771Q2103 761 2103 746Q2103 731 2092 721Q2081 711 2064 711Q2019 711 1989 690Q1960 670 1945 633Q1931 597 1931 550L1931 39Q1931 21 1920 10Q1910 0 1891 0ZM2051 460L1790 460Q1774 460 1764 469Q1755 479 1755 493Q1755 508 1764 517Q1774 527 1790 527L2051 527Q2067 527 2076 517Q2086 508 2086 493Q2086 479 2076 469Q2067 460 2051 460ZM2283 -238Q2275 -238 2265 -234Q2231 -219 2246 -186L2569 526Q2584 558 2617 544Q2651 530 2636 497L2312 -215Q2302 -238 2283 -238ZM2394 17Q2379 10 2366 14Q2353 19 2345 34L2122 496Q2115 511 2120 524Q2125 537 2140 544Q2155 551 2168 546Q2181 542 2188 527L2407 65Q2415 50 2412 37Q2409 24 2394 17Z" fill="#ffffff" style=""></path></g></g></g></svg>